<svg width="30" height="24" viewBox="0 0 30 24" fill="none" xmlns="http://www.w3.org/2000/svg">
<g id="Group 34004">
<path id="Vector" fill-rule="evenodd" clip-rule="evenodd" d="M21 0H3C2.20435 0 1.44129 0.31607 0.87868 0.87868C0.31607 1.44129 0 2.20435 0 3V21C0 21.7956 0.31607 22.5587 0.87868 23.1213C1.44129 23.6839 2.20435 24 3 24H21C21 23.6022 21.158 23.2206 21.4393 22.9393C21.7206 22.658 22.1022 22.5 22.5 22.5C22.8978 22.5 23.2794 22.658 23.5607 22.9393C23.842 23.2206 24 23.6022 24 24H27C27.7956 24 28.5587 23.6839 29.1213 23.1213C29.6839 22.5587 30 21.7956 30 21V3C30 2.20435 29.6839 1.44129 29.1213 0.87868C28.5587 0.31607 27.7956 0 27 0H24C24 0.397825 23.842 0.779355 23.5607 1.06066C23.2794 1.34196 22.8978 1.5 22.5 1.5C22.1022 1.5 21.7206 1.34196 21.4393 1.06066C21.158 0.779355 21 0.397825 21 0ZM22.5 7.5015C22.8978 7.5015 23.2794 7.34346 23.5607 7.06216C23.842 6.78086 24 6.39933 24 6.0015V6C24 5.60218 23.842 5.22064 23.5607 4.93934C23.2794 4.65804 22.8978 4.5 22.5 4.5C22.1022 4.5 21.7206 4.65804 21.4393 4.93934C21.158 5.22064 21 5.60218 21 6V6.0015C21 6.39933 21.158 6.78086 21.4393 7.06216C21.7206 7.34346 22.1022 7.5015 22.5 7.5015ZM24 12.0015C24 12.3993 23.842 12.7809 23.5607 13.0622C23.2794 13.3435 22.8978 13.5015 22.5 13.5015C22.1022 13.5015 21.7206 13.3435 21.4393 13.0622C21.158 12.7809 21 12.3993 21 12.0015V12C21 11.6022 21.158 11.2206 21.4393 10.9393C21.7206 10.658 22.1022 10.5 22.5 10.5C22.8978 10.5 23.2794 10.658 23.5607 10.9393C23.842 11.2206 24 11.6022 24 12V12.0015ZM22.5 19.5015C22.8978 19.5015 23.2794 19.3435 23.5607 19.0622C23.842 18.7809 24 18.3993 24 18.0015C24 17.6037 23.842 17.2206 23.5607 16.9393C23.2794 16.658 22.8978 16.5 22.5 16.5C22.1022 16.5 21.7206 16.658 21.4393 16.9393C21.158 17.2206 21 17.6022 21 18C21 18.3978 21.158 18.7809 21.4393 19.0622C21.7206 19.3435 22.1022 19.5015 22.5 19.5015ZM6 10.5C5.60218 10.5 5.22064 10.658 4.93934 10.9393C4.65804 11.2206 4.5 11.6022 4.5 12C4.5 12.3978 4.65804 12.7794 4.93934 13.0607C5.22064 13.342 5.60218 13.5 6 13.5H15C15.3978 13.5 15.7794 13.342 16.0607 13.0607C16.342 12.7794 16.5 12.3978 16.5 12C16.5 11.6022 16.342 11.2206 16.0607 10.9393C15.7794 10.658 15.3978 10.5 15 10.5H6ZM6 16.5C5.60218 16.5 5.22064 16.658 4.93934 16.9393C4.65804 17.2206 4.5 17.6022 4.5 18C4.5 18.3978 4.65804 18.7794 4.93934 19.0607C5.22064 19.342 5.60218 19.5 6 19.5H10.5C10.8978 19.5 11.2794 19.342 11.5607 19.0607C11.842 18.7794 12 18.3978 12 18C12 17.6022 11.842 17.2206 11.5607 16.9393C11.2794 16.658 10.8978 16.5 10.5 16.5H6Z" fill="#581C21" fill-opacity="0.8"/>
</g>
</svg>
