<svg width="170" height="351" viewBox="0 0 170 351" fill="none" xmlns="http://www.w3.org/2000/svg">
<g opacity="0.3">
<path d="M100.516 84.4812C100.398 84.4812 100.281 84.4345 100.187 84.341C99.1184 83.2657 98.8718 81.5943 99.5999 80.2735C100.046 79.4671 100.774 78.871 101.655 78.6138C102.536 78.3567 103.475 78.4502 104.286 78.8827C105.671 79.6307 106.376 81.2086 106 82.7397C105.942 82.9852 105.683 83.1371 105.437 83.0787C105.19 83.0202 105.037 82.7631 105.096 82.5176C105.366 81.4073 104.861 80.2502 103.839 79.7008C102.606 79.0346 101.068 79.4904 100.41 80.7177C99.8818 81.6878 100.058 82.915 100.833 83.6981C101.021 83.8851 101.009 84.1773 100.833 84.3527C100.739 84.4462 100.622 84.4929 100.504 84.4929L100.516 84.4812Z" fill="#4C5B66" stroke="#4C5B66" stroke-width="0.35" stroke-miterlimit="10"/>
<path d="M105.519 148.743C105.342 148.743 105.166 148.637 105.084 148.462C104.978 148.228 105.084 147.948 105.331 147.854L110.721 145.575C112.53 144.745 113.54 142.711 113.105 140.76L104.215 107.227C104.145 106.981 104.297 106.724 104.544 106.654C104.79 106.595 105.049 106.736 105.119 106.981L114.009 140.538C114.538 142.934 113.316 145.4 111.097 146.417L105.695 148.707C105.636 148.731 105.577 148.743 105.507 148.743H105.519Z" fill="#4C5B66" stroke="#4C5B66" stroke-width="0.35" stroke-miterlimit="10"/>
<path d="M90.9442 96.5433C90.8151 96.5433 90.6859 96.4849 90.5919 96.3797C90.4275 96.181 90.451 95.8888 90.6507 95.7252C93.3635 93.4343 98.3663 90.5357 102.289 88.9928C102.524 88.8993 102.794 89.0162 102.888 89.25C102.982 89.4837 102.864 89.7526 102.629 89.8461C98.7891 91.3538 93.8919 94.1823 91.2496 96.4148C91.1674 96.4849 91.0499 96.52 90.9442 96.52V96.5433Z" fill="#4C5B66" stroke="#4C5B66" stroke-width="0.35" stroke-miterlimit="10"/>
<path d="M92.3304 93.0488C92.1895 93.0488 92.0485 92.9904 91.9546 92.8618C91.8019 92.6631 91.8371 92.3709 92.0368 92.2073C94.7144 90.1619 99.2475 87.9879 102.148 86.971C102.395 86.8892 102.653 87.0178 102.747 87.2515C102.841 87.4853 102.7 87.7541 102.465 87.8476C99.13 89.0047 94.8905 91.1904 92.6122 92.9436C92.53 93.0138 92.4243 93.0371 92.3304 93.0371V93.0488Z" fill="#4C5B66" stroke="#4C5B66" stroke-width="0.35" stroke-miterlimit="10"/>
<path d="M63.6639 165.011C63.6639 165.011 63.5934 165.011 63.5582 164.999C63.3115 164.941 63.1589 164.684 63.2176 164.438C64.1571 160.605 65.214 156.677 66.3532 152.774C66.4236 152.528 66.682 152.388 66.9286 152.458C67.1753 152.528 67.3162 152.785 67.2457 153.031C66.1066 156.923 65.0496 160.827 64.1219 164.66C64.0749 164.871 63.8752 165.011 63.6639 165.011Z" fill="#4C5B66" stroke="#4C5B66" stroke-width="0.35" stroke-miterlimit="10"/>
<path d="M74.0681 131.842C74.0681 131.842 73.9506 131.842 73.8919 131.807C73.657 131.714 73.5396 131.445 73.6336 131.199C75.9941 125.262 78.4133 120.049 80.0222 116.636C80.1279 116.402 80.4097 116.309 80.6446 116.414C80.8795 116.519 80.9734 116.8 80.8677 117.033C79.2588 120.435 76.8514 125.624 74.5026 131.538C74.4321 131.725 74.256 131.831 74.0681 131.831V131.842Z" fill="#4C5B66" stroke="#4C5B66" stroke-width="0.35" stroke-miterlimit="10"/>
<path d="M102.641 85.3571C102.077 85.3571 101.514 85.2168 100.997 84.9363C100.703 84.7726 100.433 84.574 100.187 84.3402C100.01 84.1532 100.01 83.861 100.187 83.6857C100.363 83.5103 100.668 83.5103 100.844 83.6857C101.02 83.861 101.22 84.0012 101.431 84.1181C102.03 84.4337 102.712 84.5038 103.357 84.3168C104.003 84.1298 104.544 83.6973 104.861 83.1013C104.966 82.9142 105.049 82.7039 105.095 82.5052C105.154 82.2597 105.413 82.1078 105.659 82.1662C107.773 82.6805 110.204 81.3831 111.331 79.8403C111.801 79.1974 112.459 77.9234 111.649 76.6027C111.132 75.7612 110.181 75.2235 108.994 75.0833C107.303 74.8846 105.436 75.5508 104.238 76.7546C104.062 76.93 103.78 76.9417 103.592 76.778C103.404 76.6144 103.381 76.3339 103.545 76.1352C105.683 73.5404 104.285 70.9574 102.665 67.9769C100.962 64.8328 99.0357 61.268 101.103 57.0836C101.22 56.8499 101.49 56.7564 101.725 56.8733C101.96 56.9901 102.054 57.259 101.936 57.4927C100.081 61.2563 101.807 64.4471 103.487 67.5328C104.837 70.034 106.129 72.4301 105.33 74.8495C106.493 74.2768 107.832 74.0079 109.088 74.1599C110.568 74.3235 111.766 75.0248 112.435 76.1118C113.234 77.4092 113.105 78.9754 112.083 80.3779C110.85 82.061 108.255 83.487 105.871 83.1363C105.824 83.2766 105.753 83.4051 105.683 83.5337C105.236 84.3402 104.508 84.9363 103.628 85.1934C103.299 85.2869 102.97 85.3337 102.641 85.3337V85.3571Z" fill="#4C5B66" stroke="#4C5B66" stroke-width="0.35" stroke-miterlimit="10"/>
<path d="M90.945 96.5442C90.8863 96.5442 90.8276 96.5442 90.7689 96.5091C90.534 96.4156 90.4165 96.1351 90.5105 95.9013C92.5774 90.9339 93.1998 87.1937 93.6696 83.7925V83.6639C93.7165 83.4068 93.9514 83.2315 94.2098 83.2665C94.4681 83.3016 94.6443 83.5353 94.6091 83.7925V83.9211C94.1158 87.3924 93.4817 91.191 91.3795 96.2636C91.3091 96.439 91.1329 96.5558 90.945 96.5558V96.5442Z" fill="#4C5B66" stroke="#4C5B66" stroke-width="0.35" stroke-miterlimit="10"/>
<path d="M63.6642 165.012C63.4176 165.012 63.2062 164.813 63.1945 164.568C63.1945 164.311 63.3941 164.1 63.6407 164.089L107.21 162.745L102.466 131.689C102.466 131.689 102.466 131.608 102.466 131.561C102.63 130.17 102.924 128.721 103.217 127.178C104.098 122.69 105.19 117.091 104.345 108.57L101.644 85.019C101.62 84.7619 101.796 84.5398 102.055 84.5047C102.313 84.4814 102.536 84.6567 102.571 84.9138L105.272 108.477C106.13 117.138 105.014 122.806 104.133 127.353C103.84 128.849 103.558 130.275 103.393 131.608L108.208 163.119C108.232 163.247 108.197 163.387 108.103 163.481C108.02 163.586 107.891 163.645 107.762 163.645L63.6642 165H63.6525L63.6642 165.012Z" fill="#4C5B66" stroke="#4C5B66" stroke-width="0.35" stroke-miterlimit="10"/>
<path d="M80.4459 117.312C80.3402 117.312 80.2227 117.277 80.1405 117.195C78.4729 115.711 77.6039 112.754 78.9309 111.012L90.5808 95.8063C90.7334 95.6076 91.027 95.5609 91.2384 95.7245C91.4381 95.8765 91.485 96.1687 91.3206 96.379L79.6708 111.585C78.6726 112.894 79.4476 115.349 80.7512 116.506C80.9391 116.681 80.9626 116.973 80.7864 117.16C80.6925 117.266 80.5633 117.312 80.4341 117.312H80.4459Z" fill="#4C5B66" stroke="#4C5B66" stroke-width="0.35" stroke-miterlimit="10"/>
<path d="M45.2025 153.652C43.8049 153.652 42.4661 153.056 41.5149 152.004C40.4932 150.87 40.0587 149.362 40.317 147.866L43.3587 130.124C43.5701 128.897 44.721 128.032 45.9423 128.16L77.3687 131.304L92.0249 100.319C92.1306 100.086 92.4125 99.992 92.6473 100.097C92.8822 100.202 92.9762 100.483 92.8705 100.717L78.0733 131.994C77.9911 132.169 77.8032 132.274 77.6035 132.263L45.8601 129.084C45.1202 129.013 44.4156 129.539 44.2864 130.287L41.2448 148.03C41.0334 149.245 41.3975 150.473 42.2195 151.396C43.0533 152.319 44.2395 152.81 45.4726 152.729L82.031 151.945C85.7185 151.723 88.8658 149.327 90.0402 145.821L99.4 118.003C99.4822 117.758 99.7523 117.629 99.9872 117.711C100.234 117.793 100.363 118.05 100.281 118.296L90.921 146.113C89.6174 149.97 86.1413 152.623 82.0662 152.869L45.5078 153.652C45.4138 153.652 45.3081 153.652 45.2142 153.652H45.2025Z" fill="#4C5B66" stroke="#4C5B66" stroke-width="0.35" stroke-miterlimit="10"/>
<path d="M82.8766 140.339C82.7239 140.339 82.5713 140.268 82.4891 140.128L77.2631 132.052C77.1222 131.841 77.1809 131.549 77.404 131.409C77.6272 131.269 77.909 131.327 78.0499 131.549L83.2759 139.626C83.4168 139.836 83.3581 140.128 83.135 140.268C83.0528 140.315 82.9706 140.339 82.8884 140.339H82.8766Z" fill="#4C5B66" stroke="#4C5B66" stroke-width="0.35" stroke-miterlimit="10"/>
<path d="M92.4361 100.973C92.3656 100.973 92.3069 100.961 92.2364 100.926C92.0016 100.821 91.9076 100.541 92.0133 100.307C93.4578 97.2446 95.4895 96.6018 96.934 96.6018C97.5094 96.6018 98.0731 96.6953 98.6133 96.894C98.8599 96.9758 98.9774 97.2446 98.8952 97.4901C98.813 97.7355 98.5428 97.8524 98.2962 97.7706C97.8617 97.6186 97.4037 97.5368 96.934 97.5368C95.2194 97.5368 93.8453 98.6004 92.8589 100.716C92.7767 100.88 92.6122 100.985 92.4361 100.985V100.973Z" fill="#4C5B66" stroke="#4C5B66" stroke-width="0.35" stroke-miterlimit="10"/>
<path d="M23.1127 132.775C23.1127 132.775 23.0305 132.775 22.9953 132.763L11.9561 129.9C11.6508 129.818 11.3924 129.619 11.2515 129.327C11.1106 129.047 11.0988 128.719 11.2162 128.427C11.5333 127.656 12.2849 127.165 13.1187 127.165H26.2835C28.3269 127.165 30.3938 127.305 32.4255 127.597L43.7348 129.199C43.9931 129.234 44.1693 129.467 44.1341 129.724C44.0988 129.982 43.864 130.157 43.6056 130.122L32.2963 128.521C30.3116 128.24 28.2917 128.1 26.2835 128.1H13.1187C12.6607 128.1 12.2615 128.369 12.0853 128.789C12.0618 128.848 12.0853 128.895 12.0853 128.918C12.0853 128.941 12.1323 128.988 12.191 129L23.2301 131.863C23.4768 131.934 23.6294 132.179 23.559 132.424C23.5002 132.635 23.3123 132.775 23.1127 132.775Z" fill="#4C5B66" stroke="#4C5B66" stroke-width="0.35" stroke-miterlimit="10"/>
<path d="M42.0912 138.97C42.0912 138.97 42.0325 138.97 41.9972 138.97C41.7624 138.923 35.4207 137.333 31.6627 136.387C31.0873 136.246 30.5001 136.223 29.9129 136.328L17.805 138.432C16.0904 138.724 14.3054 138.315 12.8961 137.31L1.44594 129.093C1.0584 128.825 0.905739 128.357 1.05841 127.901C1.19933 127.457 1.59861 127.165 2.06836 127.165C3.06658 127.165 4.07656 127.387 4.98083 127.819L14.6812 132.378L18.9207 130.917C19.1673 130.835 19.4257 130.963 19.5079 131.209C19.5901 131.454 19.4609 131.711 19.2143 131.793L14.7986 133.313C14.6812 133.348 14.552 133.348 14.4463 133.289L4.56979 128.649C3.78296 128.287 2.91392 128.088 2.05662 128.088C1.98616 128.088 1.95093 128.123 1.92744 128.182C1.90395 128.24 1.92745 128.299 1.97442 128.334L13.4246 136.55C14.6342 137.415 16.1609 137.766 17.6289 137.509L29.7367 135.405C30.4531 135.276 31.1695 135.311 31.8741 135.487C38.1218 137.053 41.9738 138.023 42.1617 138.058C42.4083 138.117 42.5727 138.35 42.5257 138.607C42.4787 138.829 42.2908 138.981 42.0677 138.981L42.0912 138.97Z" fill="#4C5B66" stroke="#4C5B66" stroke-width="0.35" stroke-miterlimit="10"/>
<path d="M39.1658 138.071C39.1658 138.071 39.1189 138.071 39.0836 138.071C38.8253 138.025 38.6609 137.791 38.6961 137.534L40.0701 129.224C40.1171 128.966 40.3519 128.803 40.6103 128.838C40.8687 128.885 41.0331 129.118 40.9979 129.375L39.6238 137.686C39.5886 137.908 39.389 138.071 39.1658 138.071Z" fill="#4C5B66" stroke="#4C5B66" stroke-width="0.35" stroke-miterlimit="10"/>
<path d="M91.8956 84.1301C91.5315 84.1301 91.1674 84.1067 90.8151 84.0599C90.7682 84.0599 90.7212 84.0599 90.686 84.0599C89.9226 83.9547 89.2415 83.7444 88.666 83.4288C83.2052 80.4834 85.2133 74.5809 87.3742 70.2213L85.2251 69.0642C85.0489 68.9707 84.955 68.7836 84.9902 68.5849C85.0254 68.3862 85.1664 68.2343 85.366 68.1992C87.1511 67.8486 88.6543 67.4045 90.2867 65.1487C93.9155 59.6553 97.3799 57.0839 101.514 56.8384C101.76 56.8151 101.995 57.0138 102.007 57.2709C102.019 57.528 101.831 57.7501 101.572 57.7618C97.7557 57.9839 94.5144 60.4267 91.0618 65.6746C89.629 67.6616 88.1963 68.4213 86.7635 68.8304L88.2198 69.6135C88.4429 69.7304 88.5486 70.0109 88.4311 70.2447C85.1194 76.7549 85.3308 80.5652 89.124 82.6223C89.582 82.8678 90.134 83.0431 90.7447 83.1483C90.7916 83.1483 90.8386 83.1483 90.8739 83.1483C92.3771 83.3587 94.1151 83.0898 95.4304 82.4353C95.6653 82.3184 95.9354 82.4119 96.0529 82.6457C96.1703 82.8794 96.0763 83.1483 95.8415 83.2651C94.7023 83.8379 93.2696 84.1418 91.9073 84.1418L91.8956 84.1301Z" fill="#4C5B66" stroke="#4C5B66" stroke-width="0.35" stroke-miterlimit="10"/>
<path d="M104.697 84.3992C104.697 84.3992 116.464 86.7368 119.658 75.4579C122.5 65.4061 113.728 56.4881 101.526 57.3063C97.6503 65.1724 108.619 70.7242 103.91 76.4513C106.235 74.102 110.521 73.915 112.048 76.3812C114.021 79.572 109.171 83.5109 105.554 82.6343C105.495 82.8798 105.401 83.1135 105.272 83.3473C105.072 83.7096 104.814 84.0135 104.509 84.259L104.685 84.4109L104.697 84.3992Z" fill="#4C5B66" stroke="#4C5B66" stroke-width="0.35" stroke-miterlimit="10"/>
<path d="M120.104 75.5865C121.373 71.0983 120.468 66.6568 117.556 63.0802C114.021 58.744 108.008 56.3947 101.49 56.8388C101.326 56.8388 101.173 56.944 101.103 57.096C99.036 61.2803 100.962 64.8451 102.665 67.9892C104.286 70.9814 105.671 73.5527 103.546 76.1475C103.393 76.3345 103.405 76.6267 103.593 76.7903C103.781 76.954 104.062 76.9423 104.239 76.767C105.436 75.5631 107.292 74.8969 108.995 75.0956C110.193 75.2358 111.132 75.7735 111.649 76.615C112.471 77.9358 111.802 79.2098 111.332 79.8526C110.204 81.3954 107.785 82.6811 105.66 82.1785C105.413 82.1201 105.155 82.272 105.096 82.5175C105.049 82.7279 104.967 82.9266 104.861 83.1136C104.697 83.4058 104.485 83.6746 104.215 83.885C104.109 83.9668 104.039 84.1071 104.039 84.2356C104.039 84.3759 104.098 84.5045 104.203 84.598L104.379 84.7499C104.438 84.7967 104.509 84.8317 104.591 84.8551C104.626 84.8551 105.624 85.0538 107.116 85.0538C110.874 85.0538 117.756 83.8616 120.093 75.5865H120.104ZM105.683 83.5577C105.753 83.4292 105.812 83.3006 105.871 83.1603C108.255 83.511 110.85 82.085 112.083 80.4019C113.117 78.9877 113.246 77.4332 112.436 76.1358C111.766 75.0488 110.568 74.3475 109.089 74.1839C107.832 74.0436 106.493 74.3008 105.331 74.8735C106.129 72.4541 104.837 70.058 103.487 67.5568C101.855 64.5296 100.163 61.4089 101.831 57.7505C107.938 57.4232 113.54 59.6206 116.828 63.6646C119.541 66.9957 120.386 71.145 119.2 75.3293C116.534 84.7616 107.75 84.3291 105.366 84.0369C105.483 83.885 105.589 83.733 105.683 83.5577Z" fill="#4C5B66" stroke="#4C5B66" stroke-width="0.35" stroke-miterlimit="10"/>
<path d="M123.299 80.869C125.33 77.0587 124.579 74.7445 123.945 73.7042C123.169 72.4419 121.842 71.7406 120.234 71.7406C120.069 71.7406 119.916 71.8341 119.834 71.9861L113.939 82.6339C113.868 82.7625 113.857 82.9027 113.915 83.043C114.538 84.4923 115.724 85.3572 117.18 85.4157C117.239 85.4157 117.298 85.4157 117.356 85.4157C119.541 85.4157 121.795 83.6975 123.299 80.8807V80.869ZM120.504 72.6757C121.643 72.7341 122.594 73.2835 123.146 74.1834C124.05 75.6678 123.804 77.9353 122.477 80.4365C120.832 83.5105 118.683 84.5507 117.215 84.4806C116.182 84.4339 115.348 83.8728 114.855 82.8677L120.504 72.6757Z" fill="#4C5B66" stroke="#4C5B66" stroke-width="0.35" stroke-miterlimit="10"/>
<path d="M123.581 74.1014C123.44 74.1014 123.299 74.0313 123.205 73.9144C123.053 73.704 123.1 73.4118 123.299 73.2599C127.891 69.9054 134.033 67.4977 140.598 66.5042C148.701 65.2653 157.192 66.0834 165.823 68.9119C166.07 68.9938 166.199 69.2509 166.117 69.4963C166.035 69.7418 165.776 69.8704 165.53 69.7885C153.551 65.8497 136.311 64.8912 123.851 74.0079C123.769 74.0664 123.675 74.1014 123.581 74.1014Z" fill="#4C5B66" stroke="#4C5B66" stroke-width="0.35" stroke-miterlimit="10"/>
<path d="M27.7043 237.98C27.6338 237.98 27.5634 237.968 27.5046 237.933C27.2698 237.816 27.1758 237.547 27.2933 237.313L63.2527 164.345C63.3702 164.111 63.6403 164.018 63.8751 164.134C64.11 164.251 64.204 164.52 64.0865 164.754L28.1271 237.722C28.0449 237.886 27.8804 237.98 27.7043 237.98Z" fill="#4C5B66" stroke="#4C5B66" stroke-width="0.35" stroke-miterlimit="10"/>
<path d="M134.326 247.12C134.138 247.12 133.962 247.015 133.891 246.828L100.034 163.749C99.9401 163.516 100.058 163.247 100.292 163.142C100.527 163.048 100.809 163.165 100.903 163.399L134.76 246.478C134.854 246.711 134.737 246.98 134.502 247.085C134.443 247.109 134.385 247.12 134.326 247.12Z" fill="#4C5B66" stroke="#4C5B66" stroke-width="0.35" stroke-miterlimit="10"/>
<path d="M118.589 349.823C118.683 349.718 118.718 349.578 118.683 349.438L115.172 332.128L114.737 329.919C113.445 323.42 112.424 318.301 111.285 310.692L101.572 240.645C101.584 240.505 101.549 240.388 101.478 240.283C101.408 240.178 101.291 240.131 101.161 240.108C94.855 239.406 88.1845 238.752 81.3497 238.167C77.6856 237.852 74.0098 237.56 70.4044 237.303C70.2635 237.303 70.1343 237.338 70.0404 237.431C69.9464 237.525 69.8995 237.653 69.8995 237.793V237.91C69.8995 237.91 69.9112 237.969 69.9229 238.004L89.7465 309.57C93.7511 324.063 86.5991 328.469 75.2311 333.542C71.344 335.272 66.987 336.335 62.7827 337.364C53.9866 339.503 45.672 341.525 45.1083 349.473C45.1083 349.601 45.1436 349.73 45.2375 349.823C45.3197 349.917 45.4489 349.975 45.5781 349.975H118.225C118.366 349.975 118.495 349.917 118.589 349.8V349.823ZM63.0176 338.287C67.2689 337.259 71.661 336.184 75.6187 334.419C85.2368 330.129 95.1721 325.699 90.6507 309.348L70.9681 238.284C74.3621 238.53 77.8148 238.81 81.2674 239.103C87.9614 239.675 94.4909 240.318 100.68 241.008L110.357 310.832C111.496 318.464 112.576 323.864 113.821 330.106L117.661 349.064H46.1066C46.9286 342.203 54.3977 340.38 63.0293 338.287H63.0176Z" fill="#4C5B66" stroke="#4C5B66" stroke-width="0.35" stroke-miterlimit="10"/>
<path d="M101.537 346.329H67.3976C64.9666 339.959 59.0008 338.837 59.0008 338.837L58.9773 338.813C51.8254 340.695 46.0474 343.068 45.5894 349.519H118.225L115.606 336.604L115.3 336.534C105.577 338.673 101.537 346.329 101.537 346.329Z" fill="#4C5B66" stroke="#4C5B66" stroke-width="0.35" stroke-miterlimit="10"/>
<path d="M118.589 349.825C118.683 349.72 118.718 349.579 118.683 349.439L116.064 336.524C116.029 336.348 115.888 336.208 115.712 336.161L115.407 336.091C115.336 336.08 115.266 336.08 115.207 336.091C106.258 338.067 102.066 344.495 101.267 345.874H67.7151C65.2959 339.948 59.976 338.581 59.1774 338.405C59.0834 338.359 58.966 338.347 58.8486 338.37C52.1781 340.135 45.6133 342.438 45.1201 349.497C45.1201 349.626 45.1553 349.755 45.2493 349.848C45.3315 349.942 45.4606 350 45.5898 350H118.225C118.366 350 118.495 349.942 118.589 349.825ZM58.9543 339.305C59.4827 339.422 64.7674 340.731 66.9635 346.494C67.034 346.669 67.2101 346.797 67.398 346.797H101.537C101.713 346.797 101.866 346.704 101.948 346.552C101.983 346.482 105.941 339.165 115.219 337.038L117.661 349.065H46.1066C46.7525 343.642 51.5204 341.281 58.966 339.305H58.9543Z" fill="#4C5B66" stroke="#4C5B66" stroke-width="0.35" stroke-miterlimit="10"/>
<path d="M115.383 336.429L90.768 321.246C90.768 321.246 90.9912 320.463 91.1556 319.411C91.32 318.359 91.367 317.342 91.367 317.342L114.714 332.221L115.371 336.429H115.383Z" fill="#4C5B66" stroke="#4C5B66" stroke-width="0.35" stroke-miterlimit="10"/>
<path d="M115.641 336.815C115.794 336.71 115.876 336.535 115.841 336.36L115.183 332.152C115.159 332.023 115.089 331.906 114.972 331.836L91.625 316.957C91.484 316.864 91.3079 316.864 91.1552 316.934C91.0025 317.016 90.9086 317.156 90.9086 317.331C90.9086 317.331 90.8734 318.337 90.7089 319.342C90.5445 320.347 90.3331 321.118 90.3214 321.118C90.2627 321.317 90.3449 321.527 90.521 321.633L115.136 336.815C115.206 336.862 115.3 336.886 115.383 336.886C115.477 336.886 115.559 336.862 115.641 336.804V336.815ZM91.6132 319.494C91.6954 319.015 91.7424 318.535 91.7776 318.161L114.29 332.503L114.76 335.506L91.2961 321.037C91.3783 320.698 91.5075 320.148 91.6132 319.494Z" fill="#4C5B66" stroke="#4C5B66" stroke-width="0.35" stroke-miterlimit="10"/>
<path d="M146.516 289.958C146.422 289.958 146.328 289.934 146.246 289.876L144.425 288.578C139.223 284.862 134.737 281.647 128.653 276.832L103.404 258.809C103.193 258.657 103.146 258.365 103.299 258.166C103.451 257.956 103.745 257.909 103.944 258.061L129.205 276.095C135.277 280.899 139.552 283.962 144.954 287.83L146.774 289.128C146.985 289.28 147.032 289.572 146.88 289.771C146.786 289.899 146.645 289.958 146.504 289.958H146.516Z" fill="#4C5B66" stroke="#4C5B66" stroke-width="0.35" stroke-miterlimit="10"/>
<path d="M121.948 298.174L149.968 292.576C149.968 292.576 150.039 292.564 150.062 292.541C150.238 292.576 150.426 292.506 150.532 292.354C150.685 292.143 150.638 291.851 150.426 291.711L146.774 289.116C146.668 289.046 146.551 289.011 146.422 289.034L119.599 293.803C119.446 293.826 119.317 293.932 119.258 294.072C119.199 294.212 119.211 294.376 119.293 294.504L121.466 297.952C121.548 298.093 121.701 298.174 121.865 298.174C121.901 298.174 121.924 298.174 121.959 298.174H121.948ZM146.398 289.981L148.982 291.816L122.077 297.193L120.444 294.598L146.398 289.981Z" fill="#4C5B66" stroke="#4C5B66" stroke-width="0.35" stroke-miterlimit="10"/>
<path d="M116.828 341.42L161.266 300.102C161.372 300.009 161.419 299.869 161.419 299.728C161.419 299.588 161.337 299.46 161.219 299.378L150.427 291.699C150.333 291.629 150.216 291.605 150.098 291.617L149.816 291.652C149.687 291.664 149.57 291.734 149.499 291.839C149.429 291.932 149.405 292.038 149.405 292.143C144.344 299.611 145.682 307.068 146.035 308.6L121.514 331.391C119.212 330.328 116.793 329.977 114.338 330.339C114.209 330.363 114.103 330.433 114.021 330.526C113.939 330.62 113.916 330.76 113.951 330.889L116.029 341.163C116.065 341.326 116.182 341.466 116.346 341.513C116.393 341.525 116.44 341.537 116.487 341.537C116.605 341.537 116.722 341.49 116.805 341.408L116.828 341.42ZM121.408 332.373C121.584 332.455 121.796 332.432 121.937 332.291L146.88 309.09C147.01 308.974 147.056 308.798 147.01 308.635C146.986 308.553 144.872 300.511 150.18 292.669L160.21 299.798L116.793 340.169L114.972 331.204C117.18 330.971 119.341 331.356 121.408 332.373Z" fill="#4C5B66" stroke="#4C5B66" stroke-width="0.35" stroke-miterlimit="10"/>
<path d="M113.715 327.418C113.633 327.418 113.539 327.395 113.457 327.348C113.246 327.208 113.175 326.927 113.316 326.705C115.242 323.748 117.203 320.569 118.589 317.296C123.251 306.251 126.035 296.573 112.788 289.934L107.28 287.199C107.045 287.083 106.951 286.802 107.069 286.58C107.186 286.346 107.468 286.253 107.691 286.37L113.199 289.105C127.15 296.094 124.12 306.602 119.446 317.659C118.037 320.99 116.041 324.216 114.103 327.208C114.009 327.348 113.868 327.418 113.715 327.418Z" fill="#4C5B66" stroke="#4C5B66" stroke-width="0.35" stroke-miterlimit="10"/>
<path d="M80.3989 273.921C80.6337 273.839 80.7629 273.594 80.6925 273.36L70.8512 237.817V237.746C70.8277 237.513 70.6515 237.326 70.4167 237.314C64.3804 236.881 58.6611 236.531 53.3999 236.297C53.3295 236.239 53.2472 236.192 53.1533 236.18C52.9184 236.157 52.6835 236.309 52.6366 236.554L50.1939 249.177C49.1956 254.355 51.8028 259.626 56.5473 261.976L79.7412 273.5L79.8117 273.664C79.8821 273.839 80.0583 273.944 80.2345 273.944C80.2814 273.944 80.3402 273.944 80.3871 273.921H80.3989ZM69.9939 238.214L79.4359 272.32L56.9583 261.158C52.5896 258.984 50.1821 254.133 51.0981 249.364L53.4351 237.232C58.5554 237.466 64.122 237.805 69.9821 238.226L69.9939 238.214Z" fill="#4C5B66" stroke="#4C5B66" stroke-width="0.35" stroke-miterlimit="10"/>
<path d="M53.0583 236.742C37.9323 236.065 27.8091 236.275 27.7034 237.514C27.5977 238.729 37.2746 240.635 51.9426 242.516L53.0583 236.742Z" fill="#4C5B66" stroke="#4C5B66" stroke-width="0.35" stroke-miterlimit="10"/>
<path d="M52.4128 242.597L53.5285 236.835C53.552 236.707 53.5285 236.566 53.4345 236.461C53.3406 236.356 53.2231 236.286 53.094 236.286C27.4573 235.129 27.3046 236.835 27.2459 237.478C27.1872 238.109 27.0463 239.804 51.8961 242.971C51.9196 242.971 51.9313 242.971 51.9548 242.971C52.178 242.971 52.3659 242.819 52.4128 242.597ZM52.5068 237.186L51.579 242.001C34.9851 239.862 29.2306 238.273 28.2794 237.572C29.348 237.034 35.4196 236.438 52.5068 237.186Z" fill="#4C5B66" stroke="#4C5B66" stroke-width="0.35" stroke-miterlimit="10"/>
<path d="M82.9929 283.342L109.123 299.705L108.688 295.205L81.6776 278.281L82.9929 283.342Z" fill="#4C5B66" stroke="#4C5B66" stroke-width="0.35" stroke-miterlimit="10"/>
<path d="M109.369 300.103C109.522 300.01 109.604 299.834 109.593 299.659L109.158 295.148C109.146 295.007 109.064 294.879 108.947 294.797L81.936 277.873C81.7716 277.767 81.5719 277.779 81.4075 277.896C81.2549 278.013 81.1844 278.2 81.2314 278.387L82.5349 283.448C82.5702 283.565 82.6406 283.658 82.7346 283.728L108.864 300.103C108.935 300.15 109.029 300.173 109.111 300.173C109.193 300.173 109.276 300.15 109.358 300.103H109.369ZM82.4292 279.299L108.254 295.475L108.571 298.818L83.3922 283.05L82.4292 279.299Z" fill="#4C5B66" stroke="#4C5B66" stroke-width="0.35" stroke-miterlimit="10"/>
<path d="M105.236 270.684C105.025 270.684 104.837 270.544 104.778 270.322C104.72 270.076 104.872 269.819 105.131 269.76L116.37 267.166C116.616 267.107 116.875 267.259 116.933 267.516C116.992 267.762 116.839 268.019 116.581 268.077L105.342 270.672C105.342 270.672 105.272 270.684 105.236 270.684Z" fill="#4C5B66" stroke="#4C5B66" stroke-width="0.35" stroke-miterlimit="10"/>
<path d="M105.707 274.248C105.496 274.248 105.308 274.108 105.249 273.886C105.19 273.64 105.355 273.383 105.601 273.336L119.412 270.215C119.659 270.157 119.917 270.321 119.964 270.566C120.023 270.812 119.858 271.069 119.612 271.115L105.801 274.236C105.801 274.236 105.73 274.236 105.695 274.236L105.707 274.248Z" fill="#4C5B66" stroke="#4C5B66" stroke-width="0.35" stroke-miterlimit="10"/>
<path d="M90.9682 312.551L109.359 300.395L109.887 304.357L91.3675 317.343C91.3675 317.343 91.3558 316.127 91.2736 314.923C91.1914 313.72 90.9682 312.551 90.9682 312.551Z" fill="#4C5B66" stroke="#4C5B66" stroke-width="0.35" stroke-miterlimit="10"/>
<path d="M91.6375 317.717L110.157 304.732C110.298 304.627 110.369 304.463 110.345 304.288L109.817 300.325C109.793 300.162 109.699 300.033 109.547 299.963C109.406 299.893 109.23 299.905 109.1 299.998L90.7097 312.154C90.5571 312.259 90.4749 312.446 90.5101 312.621C90.5101 312.621 90.7215 313.778 90.8037 314.936C90.8859 316.116 90.8976 317.308 90.8976 317.32C90.8976 317.495 91.0033 317.647 91.156 317.729C91.2265 317.764 91.2969 317.776 91.3674 317.776C91.4613 317.776 91.5553 317.752 91.6375 317.694V317.717ZM108.995 301.19L109.394 304.136L91.8254 316.455C91.8136 316.011 91.7902 315.45 91.7432 314.889C91.6845 314.036 91.5553 313.206 91.4848 312.773L108.995 301.19Z" fill="#4C5B66" stroke="#4C5B66" stroke-width="0.35" stroke-miterlimit="10"/>
<path d="M119.517 294.552C119.517 294.552 119.459 294.552 119.435 294.552C119.177 294.505 119.012 294.271 119.059 294.014L122.806 272.426C122.853 272.169 123.099 272.005 123.346 272.052C123.604 272.099 123.769 272.333 123.722 272.59L119.975 294.178C119.94 294.4 119.74 294.563 119.517 294.563V294.552Z" fill="#4C5B66" stroke="#4C5B66" stroke-width="0.35" stroke-miterlimit="10"/>
<path d="M115.794 291.524C115.794 291.524 115.735 291.524 115.7 291.524C115.442 291.477 115.289 291.232 115.336 290.974L119.564 270.298C119.611 270.041 119.858 269.889 120.116 269.936C120.374 269.983 120.527 270.228 120.48 270.485L116.252 291.161C116.205 291.384 116.017 291.535 115.794 291.535V291.524Z" fill="#4C5B66" stroke="#4C5B66" stroke-width="0.35" stroke-miterlimit="10"/>
<path d="M103.722 259.686L80.6217 275.021L81.843 278.527L104.238 263.742L103.722 259.686Z" fill="#4C5B66" stroke="#4C5B66" stroke-width="0.35" stroke-miterlimit="10"/>
<path d="M82.1011 278.912L104.485 264.126C104.637 264.033 104.708 263.857 104.684 263.682L104.179 259.626C104.156 259.463 104.062 259.334 103.909 259.264C103.768 259.194 103.592 259.206 103.451 259.299L80.3513 274.634C80.1751 274.751 80.1046 274.973 80.1634 275.172L81.3847 278.678C81.4317 278.818 81.5374 278.923 81.6783 278.97C81.7253 278.982 81.7723 278.993 81.831 278.993C81.9249 278.993 82.0071 278.97 82.0893 278.912H82.1011ZM103.357 260.491L103.733 263.507L82.0893 277.801L81.1851 275.207L103.357 260.491Z" fill="#4C5B66" stroke="#4C5B66" stroke-width="0.35" stroke-miterlimit="10"/>
<path d="M65.0022 160.501C64.7556 160.501 64.5442 160.302 64.5325 160.056C64.5325 159.799 64.7204 159.589 64.9787 159.577L107.068 158.186C107.315 158.186 107.538 158.373 107.55 158.63C107.55 158.888 107.362 159.098 107.104 159.11L65.014 160.501H65.0022Z" fill="#4C5B66" stroke="#4C5B66" stroke-width="0.35" stroke-miterlimit="10"/>
<path d="M53.0829 237.105C53.0829 237.105 52.9889 237.105 52.9302 237.081C52.6836 236.999 52.5544 236.742 52.6366 236.497C53.1886 234.837 53.4704 233.107 53.4704 231.342C53.4704 223.126 47.2932 216.195 39.1078 215.236C38.8494 215.201 38.6733 214.979 38.6968 214.722C38.732 214.465 38.9551 214.29 39.2135 214.313C47.8686 215.341 54.3982 222.658 54.3982 231.342C54.3982 233.201 54.1046 235.036 53.5174 236.789C53.4469 236.988 53.2708 237.105 53.0711 237.105H53.0829Z" fill="#4C5B66" stroke="#4C5B66" stroke-width="0.35" stroke-miterlimit="10"/>
<path d="M72.331 222.681C75.3726 221.664 77.8505 219.537 79.2833 216.673C80.716 213.81 80.9509 210.572 79.9292 207.533C78.9075 204.494 76.7701 202.04 73.8929 200.614C71.0156 199.188 67.7626 198.954 64.7092 199.971C58.4146 202.063 55.0089 208.854 57.111 215.119C58.7904 220.133 63.4996 223.301 68.526 223.301C69.7825 223.301 71.0626 223.102 72.3192 222.681H72.331ZM73.4818 201.444C76.1359 202.765 78.1089 205.032 79.0484 207.826C79.9879 210.619 79.7765 213.623 78.4495 216.253C77.1224 218.894 74.8441 220.858 72.0374 221.793C66.2359 223.721 59.9413 220.589 58.0035 214.815C56.0658 209.041 59.2131 202.776 65.0146 200.848C66.1655 200.462 67.3516 200.275 68.5377 200.275C70.2406 200.275 71.9199 200.672 73.4818 201.444Z" fill="#4C5B66" stroke="#4C5B66" stroke-width="0.35" stroke-miterlimit="10"/>
<path d="M116.264 216.802C109.182 216.802 103.428 211.075 103.428 204.027C103.428 198.58 106.869 193.741 112.001 192C112.248 191.918 112.506 192.047 112.588 192.292C112.67 192.537 112.541 192.795 112.295 192.876C107.468 194.513 104.356 198.896 104.356 204.027C104.356 210.56 109.699 215.878 116.264 215.878C118.002 215.878 119.67 215.516 121.243 214.791C121.478 214.686 121.748 214.791 121.866 215.014C121.971 215.247 121.866 215.516 121.643 215.633C119.951 216.404 118.155 216.802 116.276 216.802H116.264Z" fill="#4C5B66" stroke="#4C5B66" stroke-width="0.35" stroke-miterlimit="10"/>
<path d="M49.3481 198.65C48.6435 198.65 47.9271 198.603 47.2225 198.521C46.9641 198.486 46.788 198.264 46.8114 198.007C46.8467 197.75 47.0815 197.575 47.3282 197.598C47.9976 197.68 48.667 197.715 49.3364 197.715C58.3203 197.715 65.625 190.445 65.625 181.503C65.625 177.097 63.9456 173.03 60.8922 170.049C60.7043 169.874 60.7043 169.57 60.8922 169.395C61.0684 169.208 61.3737 169.208 61.5499 169.395C64.7794 172.55 66.5527 176.863 66.5527 181.515C66.5527 190.959 58.8253 198.65 49.3364 198.65H49.3481Z" fill="#4C5B66" stroke="#4C5B66" stroke-width="0.35" stroke-miterlimit="10"/>
<path d="M94.5855 193.952C83.9104 193.952 75.22 185.303 75.22 174.679C75.22 170.857 76.3474 167.152 78.473 163.984C78.6139 163.774 78.9075 163.715 79.1189 163.856C79.3303 163.996 79.389 164.288 79.2481 164.498C77.2164 167.514 76.1477 171.032 76.1477 174.679C76.1477 184.789 84.4154 193.017 94.5737 193.017C100.305 193.017 105.625 190.423 109.136 185.911C109.289 185.712 109.582 185.677 109.794 185.829C109.993 185.981 110.029 186.273 109.876 186.484C106.177 191.229 100.598 193.952 94.5737 193.952H94.5855Z" fill="#4C5B66" stroke="#4C5B66" stroke-width="0.35" stroke-miterlimit="10"/>
<path d="M118.648 243.323C118.648 243.323 118.566 243.323 118.519 243.299C118.272 243.229 118.131 242.972 118.202 242.726C118.695 241.055 118.942 239.314 118.942 237.56C118.942 227.45 110.674 219.222 100.516 219.222C90.3571 219.222 82.0895 227.45 82.0895 237.56C82.0895 237.911 82.0895 238.25 82.113 238.601C82.1247 238.858 81.9251 239.08 81.6785 239.091C81.4319 239.103 81.197 238.904 81.1852 238.659C81.1618 238.297 81.15 237.934 81.15 237.572C81.15 226.948 89.8404 218.298 100.516 218.298C111.191 218.298 119.881 226.948 119.881 237.572C119.881 239.419 119.623 241.242 119.106 243.007C119.047 243.206 118.859 243.346 118.66 243.346L118.648 243.323Z" fill="#4C5B66" stroke="#4C5B66" stroke-width="0.35" stroke-miterlimit="10"/>
<path d="M123.581 73.6336L123.463 73.844C124.415 75.2933 124.497 77.631 122.876 80.6582C121.361 83.4984 119.236 84.9009 117.427 84.9477L117.368 85.0529C125.319 113.116 160.421 116.611 167.432 97.9214C174.537 78.9985 144.79 61.7703 123.557 73.6453L123.581 73.6336Z" fill="#4C5B66" stroke="#4C5B66" stroke-width="0.35" stroke-miterlimit="10"/>
<path d="M167.89 98.0738C170.638 90.7453 168.23 83.1481 161.266 77.2106C152.4 69.6484 136.534 65.8615 123.357 73.2249C123.275 73.2717 123.216 73.3301 123.169 73.412L123.052 73.6223C122.97 73.7743 122.982 73.9496 123.076 74.1015C124.05 75.5859 123.827 77.8885 122.477 80.4482C121.173 82.891 119.235 84.4338 117.427 84.4805C117.262 84.4805 117.11 84.574 117.027 84.726L116.969 84.8312C116.91 84.9364 116.898 85.0649 116.934 85.1818C121.596 101.65 135.465 109.516 147.139 109.996C147.55 110.007 147.949 110.019 148.348 110.019C157.661 110.019 165.083 105.519 167.878 98.0854L167.89 98.0738ZM123.299 80.8806C125.201 77.3274 124.673 75.0717 124.05 73.9145C136.804 66.9251 152.094 70.6185 160.656 77.9235C167.303 83.5922 169.628 90.8155 167.021 97.7582C164.249 105.122 156.639 109.458 147.186 109.072C135.958 108.605 122.629 101.101 117.967 85.3805C119.975 85.1 121.936 83.452 123.299 80.8923V80.8806Z" fill="#4C5B66" stroke="#4C5B66" stroke-width="0.35" stroke-miterlimit="10"/>
<path d="M101.115 240.586V240.656L101.996 247.062C120.904 248.149 134.198 248.067 134.327 246.652C134.456 245.203 120.692 242.772 101.115 240.586Z" fill="#4C5B66" stroke="#4C5B66" stroke-width="0.35" stroke-miterlimit="10"/>
<path d="M125.202 248.265C134.656 248.16 134.738 247.249 134.785 246.699C134.832 246.138 134.914 245.203 125.19 243.45C119.236 242.375 110.921 241.229 101.162 240.13C100.916 240.095 100.681 240.282 100.646 240.54V240.61C100.646 240.61 100.634 240.692 100.646 240.727L101.538 247.132C101.573 247.354 101.75 247.517 101.973 247.529C110.463 248.02 117.827 248.265 123.429 248.265C124.051 248.265 124.65 248.265 125.214 248.265H125.202ZM101.632 241.112C122.043 243.415 132.424 245.53 133.763 246.606C132.295 247.412 122.102 247.739 102.395 246.629L101.632 241.112Z" fill="#4C5B66" stroke="#4C5B66" stroke-width="0.35" stroke-miterlimit="10"/>
<path d="M124.05 78.0181C123.886 78.0181 123.733 77.9363 123.639 77.7844C122.253 75.3649 119.083 74.9909 119.047 74.9909C118.789 74.9675 118.601 74.7338 118.636 74.4766C118.66 74.2195 118.895 74.0325 119.153 74.0676C119.306 74.0792 122.841 74.4766 124.461 77.3285C124.59 77.5506 124.508 77.8311 124.285 77.9597C124.215 78.0064 124.132 78.0181 124.05 78.0181Z" fill="#4C5B66" stroke="#4C5B66" stroke-width="0.35" stroke-miterlimit="10"/>
<path d="M120.551 83.9903C120.551 83.9903 120.516 83.9903 120.492 83.9903C120.339 83.9786 116.816 83.5227 115.231 80.6592C115.113 80.4371 115.196 80.1566 115.419 80.028C115.642 79.9111 115.924 79.9929 116.053 80.215C117.403 82.6578 120.574 83.0669 120.609 83.0669C120.868 83.102 121.044 83.324 121.02 83.5812C120.997 83.8149 120.786 83.9903 120.562 83.9903H120.551Z" fill="#4C5B66" stroke="#4C5B66" stroke-width="0.35" stroke-miterlimit="10"/>
<path d="M123.04 81.5128C122.969 81.5128 122.887 81.5011 122.816 81.4543C122.793 81.4426 120.198 80.0635 117.626 78.4973C117.403 78.3687 117.332 78.0765 117.473 77.8544C117.602 77.6323 117.896 77.5622 118.119 77.7025C120.667 79.257 123.239 80.6245 123.263 80.6362C123.486 80.753 123.58 81.0336 123.451 81.2673C123.368 81.4193 123.204 81.5128 123.04 81.5128Z" fill="#4C5B66" stroke="#4C5B66" stroke-width="0.35" stroke-miterlimit="10"/>
<path d="M40.3175 96.6015C40.5523 96.6015 40.7755 96.5079 40.9516 96.3092L41.0338 96.2041C41.3392 95.83 41.2805 95.2807 40.9047 94.9768C40.5289 94.6729 39.9769 94.7314 39.6716 95.1054L39.6363 95.1404C39.331 95.5145 39.3662 96.0872 39.742 96.3911C39.9182 96.5313 40.1178 96.6015 40.3175 96.6015ZM43.1595 92.7678C43.4413 92.7678 43.7114 92.6392 43.8876 92.3938L43.958 92.2886C44.2282 91.8912 44.1225 91.3418 43.7232 91.073C43.3239 90.8042 42.7719 90.9094 42.5018 91.3068L42.4431 91.4003C42.1612 91.7977 42.2669 92.347 42.6662 92.6158C42.8189 92.721 42.9951 92.7678 43.1595 92.7678ZM45.7666 88.7354C46.0602 88.7354 46.3538 88.5834 46.5182 88.3146L46.5769 88.2094C46.8235 87.7887 46.6826 87.251 46.2598 87.0056C45.837 86.7601 45.2968 86.9004 45.0502 87.3211L45.8136 87.7653L45.0032 87.4146C44.7566 87.8354 44.8858 88.3731 45.3086 88.6185C45.4495 88.7003 45.6022 88.7471 45.7548 88.7471L45.7666 88.7354ZM48.0801 84.5277C48.3972 84.5277 48.7025 84.3641 48.8552 84.0602L48.9257 83.9199C49.1371 83.4874 48.9492 82.9615 48.5146 82.7511C48.0684 82.5407 47.5516 82.7277 47.3403 83.1602L47.305 83.2303C47.0819 83.6628 47.2346 84.1887 47.6691 84.4108C47.7983 84.4809 47.9392 84.516 48.0801 84.516V84.5277ZM50.0648 80.1563C50.4171 80.1563 50.746 79.946 50.8869 79.5953C51.063 79.1512 50.8634 78.5901 50.4171 78.4148C49.9591 78.2395 49.4776 78.4031 49.3015 78.8473L49.2545 78.9642C49.0783 79.42 49.3015 79.9226 49.7595 80.0979C49.8652 80.133 49.9709 80.1563 50.0766 80.1563H50.0648ZM52.4958 74.9902L52.531 74.8733C52.6602 74.4058 52.3783 73.9266 51.9086 73.798C51.4388 73.6695 50.9573 73.95 50.8282 74.4175L51.6737 74.6513L50.8047 74.476L52.484 75.0019L52.4958 74.9902ZM33.8701 73.3071C34.3399 73.3071 34.7744 72.9565 34.8096 72.489C34.8331 72.0098 34.5278 71.589 34.0345 71.5656H33.9171C33.4591 71.5189 33.0128 71.9046 32.9894 72.3838C32.9659 72.863 33.3299 73.2838 33.8232 73.3071C33.8349 73.3071 33.8584 73.3071 33.8701 73.3071ZM38.6733 73.202C38.6733 73.202 38.7438 73.202 38.779 73.202H38.8965C39.378 73.1318 39.7303 72.6994 39.6716 72.2202C39.6128 71.7409 39.1783 71.402 38.6968 71.4487H38.5794C38.0979 71.5189 37.7456 71.9513 37.8043 72.4305C37.8513 72.8747 38.2388 73.202 38.6733 73.202ZM29.2313 72.5825C29.6306 72.5825 29.9829 72.3137 30.0886 71.9163C30.2061 71.4487 29.9125 70.9695 29.4427 70.8526L29.2313 71.7059L29.3488 70.8293C28.879 70.7007 28.3975 70.9812 28.2683 71.4487C28.1392 71.9163 28.421 72.3955 28.8908 72.524C28.8908 72.524 29.02 72.5591 29.0317 72.5591C29.1022 72.5708 29.1726 72.5825 29.2431 72.5825H29.2313ZM43.3826 72.2903C43.4648 72.2903 43.547 72.2786 43.641 72.2552C44.1107 72.1266 44.4278 71.6357 44.2986 71.1682C44.1694 70.7007 43.7349 70.4085 43.2652 70.5371L43.1242 70.5721C42.6545 70.7124 42.3961 71.2033 42.537 71.6708C42.6545 72.0448 43.0068 72.2903 43.3826 72.2903ZM52.7306 70.9695C53.1534 70.9695 53.5292 70.654 53.5997 70.2215C53.6819 69.7423 53.3766 69.2397 52.8951 69.1579C52.4253 69.0761 51.9673 69.3449 51.8851 69.8241L51.8616 69.9644C51.7912 70.4436 52.12 70.8877 52.6015 70.9578C52.6484 70.9578 52.6954 70.9578 52.7306 70.9578V70.9695ZM24.616 70.9695C24.9566 70.9695 25.2972 70.7942 25.4381 70.4786C25.6377 70.0345 25.4968 69.5436 25.0506 69.3449L24.9449 69.2981C24.4986 69.0994 23.9819 69.2981 23.7822 69.7423C23.5826 70.1864 23.7822 70.7007 24.2285 70.8994C24.3577 70.9578 24.4869 70.9812 24.616 70.9812V70.9695ZM47.9157 70.6773C48.0331 70.6773 48.1623 70.654 48.2798 70.5955C48.726 70.3968 48.9726 69.8475 48.773 69.415C48.5733 68.9709 48.1036 68.7488 47.6573 68.9475L47.5516 68.9942C47.1054 69.1929 46.9057 69.7189 47.1054 70.1514C47.2463 70.4786 47.5751 70.6656 47.904 70.6656L47.9157 70.6773ZM20.4587 68.6319C20.7523 68.6319 21.0342 68.5033 21.1986 68.2462C21.457 67.8488 21.3982 67.3462 20.999 67.0774C20.999 67.0774 20.905 67.019 20.905 67.0073C20.5175 66.7501 19.9772 66.832 19.6954 67.2177C19.4135 67.5917 19.484 68.1176 19.8481 68.4098C19.8833 68.4332 19.9303 68.4683 19.9655 68.4917C20.1182 68.5852 20.2826 68.6202 20.4587 68.6202V68.6319ZM52.1787 68.4449C52.3314 68.4449 52.4958 68.3982 52.6367 68.3163C53.0477 68.0592 53.2239 67.4865 52.9655 67.0774C52.7072 66.6683 52.2139 66.5164 51.8029 66.7618L51.7089 66.8203C51.2979 67.0774 51.1687 67.6151 51.4271 68.0241C51.5915 68.293 51.8851 68.4332 52.1787 68.4332V68.4449ZM53.2122 66.2125C53.6936 66.2125 54.0929 65.8151 54.0929 65.3359C54.1047 64.8567 53.7289 64.4008 53.2356 64.3892C52.6954 64.3541 52.3431 64.7047 52.3314 65.1956V65.3359C52.3314 65.8151 52.7189 66.2125 53.2122 66.2125ZM16.7242 65.7099C16.9591 65.7099 17.194 65.6164 17.3701 65.4294C17.699 65.0787 17.6755 64.5177 17.3231 64.1905L17.2527 64.1203C16.9004 63.7814 16.3484 63.7931 16.0078 64.1437C15.6673 64.4943 15.679 65.0437 16.0313 65.3826L16.1253 65.4761C16.2897 65.6281 16.5128 65.7099 16.7242 65.7099ZM56.1246 65.7099C56.3242 65.7099 56.5239 65.6398 56.6883 65.4995C57.0759 65.2073 57.1698 64.6229 56.8762 64.2489C56.5826 63.8632 56.0541 63.7697 55.6666 64.0736L55.5492 64.1671C55.1734 64.4827 55.1264 65.032 55.4435 65.406C55.6196 65.6164 55.8662 65.7216 56.1129 65.7216L56.1246 65.7099ZM59.7299 62.5424C59.9531 62.5424 60.1645 62.4606 60.3406 62.297L60.4346 62.2035C60.7751 61.8645 60.7751 61.3035 60.4346 60.9646C60.094 60.6256 59.5303 60.6256 59.1897 60.9646L59.1193 61.0347C58.767 61.3736 58.7552 61.923 59.0958 62.2736C59.2719 62.4489 59.4951 62.5424 59.7299 62.5424ZM13.4947 62.1801C13.6826 62.1801 13.8705 62.1217 14.0349 61.9931C14.4224 61.7009 14.4929 61.1399 14.1876 60.7659L13.4947 61.3035L14.1406 60.7074L12.7196 61.736L12.8018 61.8412C12.978 62.0632 13.2363 62.1801 13.4947 62.1801ZM52.942 61.4438C52.942 61.4438 53.0242 61.4438 53.0712 61.4438C53.5527 61.3736 53.8815 60.9295 53.8111 60.4503V60.3334C53.7289 59.8542 53.2826 59.5386 52.7894 59.597C52.3079 59.6672 51.979 60.1113 52.0495 60.5905V60.7074C52.1317 61.1399 52.5075 61.4555 52.942 61.4555V61.4438ZM63.6641 58.6737C63.9577 58.288 63.9342 57.7036 63.5584 57.3997C63.1826 57.1075 62.6659 57.1192 62.3605 57.4815L63.0417 58.0308L62.3371 57.5049L62.9712 58.1244L63.6641 58.662V58.6737ZM10.9932 58.0893C11.1224 58.0893 11.2516 58.0659 11.3808 57.9958C11.8153 57.7854 12.0032 57.2594 11.7918 56.827L11.005 57.2127L11.7801 56.7919L10.958 57.1075L10.1712 57.4932L10.2182 57.5984C10.3708 57.914 10.6879 58.0893 11.0167 58.0893H10.9932ZM51.8499 56.7802C51.9438 56.7802 52.0378 56.7685 52.1317 56.7335C52.5897 56.5815 52.8481 56.0789 52.6837 55.6231L52.6367 55.5062C52.484 55.0504 51.979 54.8049 51.521 54.9686C51.063 55.1205 50.8164 55.6231 50.9808 56.0789L51.0161 56.1841C51.1452 56.5465 51.4858 56.7802 51.8499 56.7802ZM65.825 55.1439C66.1186 55.1439 66.4004 55.0036 66.5648 54.7465C66.8349 54.3374 66.7527 53.753 66.3417 53.4842C65.9307 53.2154 65.4139 53.2855 65.1556 53.6946L65.0851 53.7998C64.8267 54.2089 64.9442 54.7465 65.3552 55.0153C65.4961 55.1088 65.6723 55.1556 65.825 55.1556V55.1439ZM9.49004 53.5076C9.49004 53.5076 9.58398 53.5076 9.63097 53.5076C10.1125 53.4258 10.4413 53.0167 10.3591 52.5375L10.3356 52.3972C10.2416 51.918 9.76015 51.6141 9.2904 51.7193C8.80891 51.8245 8.51531 52.2803 8.60926 52.7595C8.67973 53.192 9.06726 53.5309 9.50178 53.5309L9.49004 53.5076ZM49.1371 51.8946L49.9356 51.5206L50.699 51.0881L50.6403 50.9829C50.3936 50.5622 49.8652 50.4102 49.4424 50.6557C49.0196 50.8894 48.8669 51.4271 49.1136 51.8479L49.8769 51.4154L49.1371 51.8946ZM68.2559 51.018C68.5848 51.018 68.9018 50.831 69.0545 50.5271C69.2894 50.0947 69.1367 49.5336 68.7139 49.2999C68.2794 49.0778 67.7744 49.1947 67.5396 49.6271L67.4691 49.7557C67.2577 50.1882 67.4456 50.7141 67.8801 50.9245C68.0093 50.9829 68.1385 51.018 68.2677 51.018H68.2559ZM9.33737 48.7388C9.76014 48.7388 10.1242 48.47 10.1829 48.0376L10.2064 47.8973C10.2651 47.4181 9.91282 46.9856 9.43132 46.9272C8.94983 46.8804 8.50356 47.2194 8.45658 47.6986C8.38612 48.1778 8.71495 48.6687 9.19645 48.7388C9.24342 48.7388 9.29039 48.7388 9.33737 48.7388ZM47.2698 48.4116C47.4694 48.4116 47.6691 48.3414 47.8335 48.2012C48.2093 47.8856 48.2563 47.3363 47.9392 46.9623C47.6456 46.5765 47.0584 46.483 46.6826 46.7752C46.2951 47.0675 46.2011 47.5934 46.5064 47.9791L46.6004 48.096C46.7766 48.3064 47.0232 48.4116 47.2698 48.4116ZM70.2289 46.635C70.5812 46.635 70.9218 46.4129 71.0509 46.0623L71.0979 45.9571C71.2741 45.5012 71.0392 44.9987 70.5812 44.8233C70.1232 44.6597 69.6182 44.8818 69.4421 45.3376L69.3951 45.4428C69.2189 45.8986 69.4538 46.4012 69.9118 46.5766C70.0175 46.6116 70.1232 46.635 70.2171 46.635H70.2289ZM44.0402 44.8467C44.2751 44.8467 44.4983 44.7532 44.6744 44.5779C45.015 44.2272 45.0032 43.6779 44.6509 43.339C44.3104 43 43.7114 42.9649 43.3709 43.3039C43.0303 43.6428 42.9951 44.1688 43.3356 44.5078L43.4296 44.6013C43.6057 44.7649 43.8171 44.8467 44.0402 44.8467ZM10.9228 44.2272C11.2046 44.2272 11.463 44.0987 11.6157 43.8299L10.8523 43.3857L11.6274 43.7948L10.911 43.2805L10.1477 42.8481C9.91282 43.2688 10.0303 43.8532 10.4413 44.087C10.594 44.1805 10.7584 44.2156 10.9228 44.2156V44.2272ZM71.6734 42.065C72.0609 42.065 72.4132 41.8078 72.5189 41.4221C72.5189 41.4221 72.5542 41.2935 72.5542 41.2819C72.6716 40.8143 72.378 40.3351 71.9083 40.2182C71.4385 40.1014 70.957 40.3936 70.8396 40.8611L71.6969 41.0715L70.8161 40.9546C70.6869 41.4221 70.9687 41.9013 71.4385 42.0299C71.5207 42.0533 71.5912 42.065 71.6734 42.065ZM40.4349 41.6793C40.705 41.6793 40.9751 41.5624 41.1395 41.3286C41.4331 40.9429 41.3509 40.3936 40.9516 40.1014C40.5641 39.8209 39.9769 39.8559 39.6833 40.2416C39.3897 40.6273 39.4132 41.1299 39.8007 41.4221L39.9064 41.5039C40.0591 41.6208 40.247 41.6793 40.4349 41.6793ZM13.9644 40.6273C14.1758 40.6273 14.3872 40.5455 14.5634 40.3936L14.6338 40.3234C14.9979 40.0079 15.0331 39.4468 14.7043 39.0845C14.3755 38.7222 13.8235 38.6871 13.4594 39.0144L13.3655 39.1079C13.0132 39.4351 12.9897 39.9845 13.3185 40.3468C13.4947 40.5338 13.7295 40.6273 13.9644 40.6273ZM35.9605 38.8858L36.442 38.1495L36.8531 37.378L36.7474 37.3196C36.3128 37.0975 35.7844 37.2495 35.5612 37.6819C35.3381 38.1144 35.4908 38.6404 35.9253 38.8624L36.3363 38.091L35.9605 38.8858ZM17.8986 37.8923C18.0395 37.8923 18.1804 37.8573 18.3096 37.7871L18.3801 37.7521C18.8146 37.5417 19.0025 37.0157 18.7911 36.5833C18.5797 36.1508 18.0513 35.9638 17.6167 36.1742L17.4876 36.2443C17.053 36.4781 16.9004 37.004 17.1235 37.4248C17.2879 37.717 17.5815 37.8923 17.8986 37.8923ZM72.5542 37.3664C72.9887 37.3664 73.3762 37.0391 73.4232 36.5949V36.4781C73.4937 35.9989 73.1531 35.5664 72.6716 35.508C72.1784 35.4612 71.7556 35.8002 71.6969 36.2794L72.5776 36.3846H71.6851C71.6264 36.8755 71.967 37.3079 72.4485 37.3664C72.4837 37.3664 72.5189 37.3664 72.5542 37.3664ZM32.0381 37.0858C32.4139 37.0858 32.7662 36.8404 32.8837 36.4664C33.0246 35.9989 32.7662 35.508 32.2965 35.3677C31.8385 35.2274 31.2983 35.4612 31.1456 35.917C30.9929 36.3729 31.1926 36.8404 31.6388 36.9923L31.7797 37.0391C31.862 37.0625 31.9559 37.0742 32.0381 37.0742V37.0858ZM22.4317 36.3378C22.4317 36.3378 22.5374 36.3378 22.5844 36.3261L22.7253 36.3027C23.2068 36.2092 23.5121 35.7417 23.4064 35.2625C23.3125 34.7833 22.831 34.4794 22.3612 34.5846C21.8915 34.6781 21.5274 35.1456 21.6214 35.6248C21.7036 36.0456 22.0324 36.3495 22.4317 36.3495V36.3378ZM27.3406 36.1041C27.7986 36.1041 28.1861 35.7417 28.2214 35.2742C28.2449 34.795 27.8808 34.3742 27.3876 34.3508C26.9178 34.3275 26.4363 34.6781 26.4011 35.1573C26.3659 35.6365 26.6595 36.0456 27.1409 36.0924C27.1409 36.0924 27.2701 36.0924 27.2819 36.0924C27.2936 36.0924 27.3171 36.0924 27.3289 36.0924L27.3406 36.1041ZM48.82 34.5028C48.82 34.5028 48.8787 34.5028 48.9022 34.5028C48.9139 34.5028 49.0431 34.4794 49.0548 34.4794C49.5363 34.4093 49.8652 33.9651 49.8065 33.4859C49.736 33.0067 49.3015 32.6678 48.8082 32.7379H48.7613C48.2915 32.808 47.9157 33.2522 47.9744 33.7197C48.0331 34.1638 48.3737 34.4911 48.8082 34.4911L48.82 34.5028ZM44.1929 34.047C44.557 34.047 44.8976 33.8132 45.0267 33.4509C45.1794 32.995 44.9445 32.4924 44.4865 32.3405L44.2047 33.1703L44.4278 32.3171L43.7936 33.9534L43.9228 34.0002C44.0168 34.0353 44.1107 34.047 44.2047 34.047H44.1929ZM53.8228 32.9015L53.9403 32.8314C54.3513 32.5743 54.4805 32.0366 54.2221 31.6275C53.9637 31.2184 53.4235 31.0899 53.0125 31.347L53.4823 32.095L52.9538 31.3821L53.8346 32.9015H53.8228ZM72.8008 32.5859H72.8243C73.3058 32.5743 73.6933 32.1652 73.6816 31.686C73.6698 31.2068 73.2705 30.7626 72.7773 30.7743C72.2958 30.786 71.9083 31.1366 71.92 31.6158V31.7327C71.9435 32.2119 72.331 32.5859 72.8008 32.5859ZM40.2118 31.4405C40.4349 31.4405 40.6463 31.3587 40.8225 31.1951C41.1748 30.8561 41.1865 30.3068 40.8459 29.9561L40.7637 29.8743C40.4349 29.5237 39.8712 29.512 39.5189 29.8509C39.1666 30.1899 39.1548 30.7392 39.4954 31.0899L39.5776 31.1717C39.7538 31.347 39.9769 31.4405 40.2118 31.4405ZM56.6648 29.6172C56.9819 29.6172 57.2872 29.4419 57.4516 29.138L57.5104 29.0094C57.7218 28.5769 57.5339 28.051 57.0993 27.8406C56.6531 27.6302 56.1363 27.8172 55.925 28.2497L55.878 28.3315C55.6549 28.7639 55.8193 29.2899 56.2538 29.512C56.383 29.5821 56.5239 29.6055 56.6531 29.6055L56.6648 29.6172ZM72.3428 27.8172C72.3428 27.8172 72.4485 27.8172 72.4954 27.8055C72.9769 27.7237 73.294 27.2679 73.2001 26.7887C73.1179 26.3095 72.6599 25.9354 72.1666 26.0173C71.6851 26.0991 71.3563 26.4965 71.4385 26.9757L71.462 27.0926C71.5442 27.5133 71.9083 27.8172 72.331 27.8172H72.3428ZM37.5812 27.4549C37.6986 27.4549 37.8278 27.4315 37.9452 27.3731C38.3915 27.1744 38.5911 26.6484 38.3915 26.216L38.3563 26.1341C38.1684 25.69 37.6516 25.4679 37.2054 25.6549C36.7591 25.8419 36.536 26.3445 36.7239 26.8004L36.7826 26.9406C36.9235 27.2679 37.2523 27.4549 37.5812 27.4549ZM57.5926 24.9653C57.5926 24.9653 57.6278 24.9653 57.6396 24.9653C58.121 24.942 58.4968 24.5212 58.4734 24.042C58.4499 23.5628 58.0154 23.1537 57.5339 23.1654C57.0524 23.1887 56.6766 23.5511 56.7 24.0303V24.1472C56.7353 24.6147 57.1228 24.977 57.5808 24.977L57.5926 24.9653ZM71.1566 23.1654C71.2506 23.1654 71.3563 23.1537 71.462 23.1186C71.92 22.955 72.1549 22.4524 71.9905 21.9966C71.8378 21.5407 71.3093 21.2485 70.8513 21.4005C70.3933 21.5524 70.1349 22.0083 70.2876 22.4641L70.3346 22.5927C70.4638 22.9433 70.8043 23.1654 71.1684 23.1654H71.1566ZM36.3128 22.7913C36.3128 22.7913 36.3716 22.7913 36.4068 22.7913C36.8883 22.7329 37.2406 22.3472 37.1819 21.868L37.1584 21.7277C37.0879 21.2485 36.6417 20.9213 36.1602 20.9914C35.6787 21.0615 35.3499 21.5057 35.4203 21.9849C35.479 22.429 35.8666 22.803 36.3128 22.803V22.7913ZM56.3477 20.3602C56.4769 20.3602 56.6178 20.3252 56.7353 20.2667C57.1698 20.0447 57.346 19.5187 57.1346 19.0862C56.9232 18.6538 56.3712 18.42 55.9367 18.6304C55.5022 18.8408 55.2908 19.32 55.5022 19.7525L55.5609 19.8693C55.7136 20.1732 56.0307 20.3602 56.3477 20.3602ZM69.2424 18.7707C69.3833 18.7707 69.5243 18.7356 69.6534 18.6655C70.088 18.4317 70.2406 17.9057 70.0175 17.485C69.7944 17.0642 69.2307 16.8421 68.7961 17.0759C68.3616 17.3097 68.1737 17.7889 68.4086 18.2096L68.4673 18.3148C68.6317 18.607 68.9253 18.7823 69.2424 18.7823V18.7707ZM36.4185 18.0694C36.8413 18.0694 37.2054 17.7655 37.2876 17.3447L37.3111 17.2395C37.3933 16.7603 37.0762 16.3045 36.6064 16.2227C36.1367 16.1408 35.6669 16.4564 35.5847 16.9239L35.5612 17.0408C35.479 17.52 35.7961 17.9759 36.2776 18.0577C36.3246 18.0577 36.3833 18.0694 36.4303 18.0694H36.4185ZM53.6702 16.4097C53.8815 16.4097 54.0812 16.3395 54.2573 16.1876C54.6214 15.872 54.6566 15.311 54.3396 14.9487C54.3396 14.9487 54.2573 14.8552 54.2456 14.8435C53.9168 14.4928 53.3648 14.4695 53.0008 14.7967C52.6367 15.124 52.625 15.6733 52.9538 16.0357L53.5997 15.4396L53.0125 16.1058C53.1887 16.3045 53.4353 16.398 53.6702 16.398V16.4097ZM66.6823 14.7266C66.8702 14.7266 67.0463 14.6681 67.2107 14.5513C67.5983 14.2591 67.6805 13.7097 67.3869 13.324C67.0933 12.9383 66.5061 12.8097 66.1186 13.1019C65.731 13.3942 65.6136 13.8967 65.9072 14.2824L65.9776 14.3759C66.1538 14.6097 66.4122 14.7266 66.6823 14.7266ZM38.0274 13.5812C38.3328 13.5812 38.6381 13.4175 38.7908 13.137L38.0274 12.7046L38.8143 13.0903L38.0862 12.5994L37.3228 12.1669L37.2641 12.2721C37.0292 12.6929 37.1701 13.2305 37.5929 13.4643C37.7338 13.5461 37.8748 13.5812 38.0274 13.5812ZM50.1118 13.1955C50.3819 13.1955 50.652 13.0786 50.8164 12.8448C51.11 12.4591 51.0278 11.9098 50.6285 11.6176L50.5228 11.5357C50.1235 11.2552 49.5716 11.3487 49.2897 11.7344C49.0079 12.1202 49.1018 12.6695 49.4894 12.9617L49.5716 13.0201C49.7242 13.137 49.9121 13.1955 50.1 13.1955H50.1118ZM62.8186 10.9046L63.4645 10.3085L64.0282 9.64228C63.6641 9.32671 63.0652 9.33839 62.7481 9.70072C62.431 10.0631 62.4193 10.5773 62.7833 10.8929L63.3705 10.2384L62.8068 10.9163L62.8186 10.9046ZM46.0132 10.7059C46.3303 10.7059 46.6356 10.5423 46.7883 10.2384C47.0114 9.80592 46.8588 9.27995 46.4242 9.05788L46.2833 8.98775C45.8371 8.77737 45.3203 8.96438 45.1089 9.39683C44.8976 9.82929 45.0854 10.3553 45.52 10.5656L45.5904 10.6007C45.7196 10.6708 45.8605 10.7059 46.0015 10.7059H46.0132ZM41.1865 10.0046C41.3744 10.0046 41.5623 9.94617 41.7267 9.8176L41.1865 9.12801L41.8089 9.75916C42.1495 9.51371 42.2552 9.06957 42.0908 8.69555C42.2317 8.59036 42.3491 8.43841 42.4196 8.26309C42.5723 7.80726 42.3257 7.30467 41.8677 7.15273C41.4096 7.00078 40.8577 7.22285 40.6933 7.67869C40.6111 7.92414 40.6228 8.16959 40.7285 8.37997L40.658 8.42672C40.2705 8.71893 40.2 9.27995 40.5054 9.65397C40.6815 9.87604 40.9399 9.99293 41.1983 9.99293L41.1865 10.0046ZM59.0488 8.32153L59.5186 7.5735L59.9061 6.7904C59.4716 6.58001 58.8961 6.73196 58.6847 7.16441C58.4734 7.59687 58.5908 8.08777 59.0253 8.30984L59.4129 7.52674L59.0488 8.33322V8.32153ZM45.4025 7.72544C45.5082 7.72544 45.6139 7.70206 45.7079 7.667L45.8136 7.62025C46.2716 7.44493 46.4947 6.94234 46.3303 6.48651C46.1541 6.03067 45.6492 5.8086 45.1911 5.97223L45.0854 6.01898C44.6274 6.19431 44.4043 6.69689 44.5687 7.15273C44.6979 7.50337 45.0385 7.72544 45.3908 7.72544H45.4025ZM36.9353 7.59687C37.3346 7.59687 37.6986 7.32805 37.7926 6.91897C37.8983 6.45144 37.6047 5.97223 37.1349 5.86704L37.0057 5.84366C36.536 5.73847 36.0662 6.04236 35.9605 6.52157C35.8548 7.00078 36.1602 7.45662 36.6417 7.56181L36.8296 6.70858L36.7474 7.58518C36.8178 7.59687 36.8883 7.60856 36.947 7.60856L36.9353 7.59687ZM54.9855 6.8839C55.3965 6.8839 55.7605 6.60339 55.8428 6.19431C55.9484 5.7151 55.6431 5.25926 55.1616 5.15407L55.0207 5.13069C54.5392 5.04888 54.0812 5.36445 53.999 5.84366C53.9168 6.32287 54.2339 6.77871 54.7154 6.86053H54.7976C54.8563 6.89559 54.915 6.89559 54.9855 6.89559V6.8839ZM32.1908 6.80208C32.637 6.80208 33.0128 6.47482 33.0598 6.03067C33.1185 5.55146 32.7662 5.119 32.2847 5.06056H32.1673C31.6858 4.99044 31.2395 5.32939 31.1926 5.82029C31.1456 6.31119 31.4861 6.73196 31.9676 6.7904H32.0851C32.0851 6.7904 32.1555 6.81377 32.1908 6.81377V6.80208ZM50.0766 6.65014C50.0766 6.65014 50.1235 6.65014 50.1588 6.65014H50.2997C50.7812 6.58001 51.1335 6.14755 51.0748 5.66834C51.0161 5.18913 50.5933 4.85018 50.1 4.89693C49.6186 4.94368 49.2075 5.36445 49.2545 5.85535C49.2897 6.31119 49.642 6.66183 50.0883 6.66183L50.0766 6.65014ZM22.4552 6.45144H22.4787C22.4787 6.45144 22.6078 6.45144 22.6196 6.45144C23.1011 6.42807 23.4769 6.0073 23.4534 5.52809C23.4299 5.04888 23.0071 4.65148 22.5256 4.69823C22.0441 4.72161 21.6214 5.13069 21.6449 5.6099C21.6683 6.07743 21.9972 6.45144 22.4669 6.45144H22.4552ZM27.3876 6.45144C27.8456 6.45144 28.2331 6.08911 28.2683 5.62159C28.2918 5.14238 27.9278 4.72161 27.4345 4.69823C27.4345 4.69823 27.3054 4.69823 27.2936 4.69823H27.2701C26.8004 4.69823 26.4011 5.07225 26.3893 5.55146C26.3776 6.03067 26.7534 6.43975 27.2466 6.45144L27.2701 5.57484L27.3406 6.45144C27.3406 6.45144 27.3758 6.45144 27.3876 6.45144Z" fill="#4C5B66" stroke="#4C5B66" stroke-width="0.5" stroke-miterlimit="10"/>
<path d="M19.131 1.88272L17.3342 5.41251L19.1075 8.6618L10.7929 5.51771L19.131 1.88272Z" fill="#4C5B66" stroke="#4C5B66" stroke-width="0.5" stroke-miterlimit="10"/>
<path d="M19.1078 9.53792C19.3544 9.53792 19.601 9.43272 19.7655 9.23403C20.0121 8.95351 20.0473 8.55612 19.8711 8.24054L18.321 5.38866L19.9064 2.26794C20.0708 1.94068 20.0121 1.54328 19.7655 1.27446C19.5071 1.00563 19.1078 0.923817 18.7672 1.07576L10.4292 4.71075C10.1003 4.85101 9.88894 5.17827 9.90069 5.5406C9.91243 5.90293 10.1356 6.20682 10.4644 6.33539L18.779 9.47948C18.8847 9.51454 18.9904 9.53792 19.0961 9.53792H19.1078ZM17.2405 3.65882L16.5477 5.01464C16.4185 5.27178 16.4185 5.57566 16.5594 5.8328L17.1936 7.00161L13.1185 5.45878L17.2405 3.65882Z" fill="#4C5B66" stroke="#4C5B66" stroke-width="0.5" stroke-miterlimit="10"/>
</g>
</svg>
