<svg width="24" height="24" viewBox="0 0 24 24" fill="none" xmlns="http://www.w3.org/2000/svg">
<g id="Group 34003">
<path id="Vector" d="M13.8316 0.668903C13.3191 0.23692 12.6703 0 12 0C11.3297 0 10.6809 0.23692 10.1684 0.668903L1.64185 7.86276C1.32537 8.12949 1.07097 8.46212 0.896417 8.8374C0.721867 9.21268 0.631387 9.62156 0.631302 10.0354V21.7894C0.631302 23.0097 1.62164 24 2.84188 24H6.63145C7.21773 24 7.78 23.7671 8.19457 23.3525C8.60913 22.938 8.84203 22.3757 8.84203 21.7894V16.7329C8.84203 15.8739 9.52668 15.1766 10.3793 15.1539H13.6207C14.0322 15.1648 14.4232 15.3359 14.7103 15.6308C14.9975 15.9258 15.1581 16.3212 15.158 16.7329V21.7894C15.158 23.0097 16.1483 24 17.3686 24H21.1581C21.7444 24 22.3067 23.7671 22.7212 23.3525C23.1358 22.938 23.3687 22.3757 23.3687 21.7894V10.0342C23.3686 9.6203 23.2781 9.21142 23.1036 8.83614C22.929 8.46086 22.6746 8.12823 22.3582 7.8615L13.8316 0.668903Z" fill="#0D3B66" fill-opacity="0.8"/>
</g>
</svg>
