<svg width="40" height="24" viewBox="0 0 40 24" fill="none" xmlns="http://www.w3.org/2000/svg">
<path id="Union" fill-rule="evenodd" clip-rule="evenodd" d="M14.9 9.23077V12.9231H11.5C11.0491 12.9231 10.6167 13.1176 10.2979 13.4638C9.97906 13.81 9.79995 14.2796 9.79995 14.7692V16.6154C9.79995 17.105 9.97906 17.5746 10.2979 17.9208C10.6167 18.267 11.0491 18.4615 11.5 18.4615H12.35V23.0769C12.35 23.3217 12.4395 23.5565 12.5989 23.7296C12.7583 23.9027 12.9745 24 13.2 24C13.4254 24 13.6416 23.9027 13.801 23.7296C13.9604 23.5565 14.05 23.3217 14.05 23.0769V18.4615H25.95V23.0769C25.95 23.3217 26.0395 23.5565 26.1989 23.7296C26.3583 23.9027 26.5745 24 26.8 24C27.0254 24 27.2416 23.9027 27.401 23.7296C27.5604 23.5565 27.65 23.3217 27.65 23.0769V18.4615H28.5C28.9508 18.4615 29.3832 18.267 29.702 17.9208C30.0208 17.5746 30.2 17.105 30.2 16.6154V14.7692C30.2 14.2796 30.0208 13.81 29.702 13.4638C29.3832 13.1176 28.9508 12.9231 28.5 12.9231H25.1V9.23077H26.8C27.2508 9.23077 27.6832 9.03626 28.002 8.69004C28.2748 8.39378 28.4453 8.00721 28.4889 7.59503H38.4023C39.1742 7.59503 39.7999 6.96929 39.7999 6.19742C39.7999 5.42554 39.1742 4.7998 38.4023 4.7998H28.5V1.84615C28.5 1.35652 28.3208 0.886947 28.002 0.540726C27.6832 0.194505 27.2508 0 26.8 0H13.2C12.7491 0 12.3167 0.194505 11.9979 0.540726C11.6791 0.886947 11.5 1.35652 11.5 1.84615V4.7998H1.59756C0.825684 4.7998 0.199951 5.42554 0.199951 6.19742C0.199951 6.96929 0.825682 7.59503 1.59756 7.59503H11.511C11.5546 8.00721 11.7251 8.39378 11.9979 8.69004C12.3167 9.03626 12.7491 9.23077 13.2 9.23077H14.9ZM23.4 12.9231H16.6V9.23077H23.4V12.9231ZM3.79158 10.7456C3.79158 9.93186 4.45128 9.27216 5.26507 9.27216C6.07885 9.27216 6.73856 9.93186 6.73856 10.7456V22.5263C6.73856 23.3401 6.07885 23.9998 5.26507 23.9998C4.45128 23.9998 3.79158 23.3401 3.79158 22.5263V10.7456ZM33.2613 10.7456C33.2613 9.93186 33.921 9.27216 34.7348 9.27216C35.5486 9.27216 36.2083 9.93186 36.2083 10.7456V22.5263C36.2083 23.3401 35.5486 23.9998 34.7348 23.9998C33.921 23.9998 33.2613 23.3401 33.2613 22.5263V10.7456Z" fill="#581C21" fill-opacity="0.8"/>
</svg>
