<svg width="16" height="16" viewBox="0 0 16 16" fill="none" xmlns="http://www.w3.org/2000/svg">
<g id="fluent:people-48-filled">
<path id="Vector" d="M5.33333 8C6.04058 8 6.71885 7.71905 7.21895 7.21895C7.71905 6.71885 8 6.04057 8 5.33333C8 4.62609 7.71905 3.94781 7.21895 3.44771C6.71885 2.94762 6.04058 2.66666 5.33333 2.66666C4.62609 2.66666 3.94781 2.94762 3.44772 3.44771C2.94762 3.94781 2.66667 4.62609 2.66667 5.33333C2.66667 6.04057 2.94762 6.71885 3.44772 7.21895C3.94781 7.71905 4.62609 8 5.33333 8ZM11.3333 8C11.8638 8 12.3725 7.78928 12.7475 7.41421C13.1226 7.03914 13.3333 6.53043 13.3333 6C13.3333 5.46956 13.1226 4.96086 12.7475 4.58578C12.3725 4.21071 11.8638 4 11.3333 4C10.8029 4 10.2942 4.21071 9.91912 4.58578C9.54405 4.96086 9.33333 5.46956 9.33333 6C9.33333 6.53043 9.54405 7.03914 9.91912 7.41421C10.2942 7.78928 10.8029 8 11.3333 8ZM2.25 9C1.91848 9 1.60054 9.13169 1.36612 9.36611C1.1317 9.60053 1 9.91848 1 10.25V10.6667C1 10.6667 1 13.6667 5.33333 13.6667C9.66667 13.6667 9.66667 10.6667 9.66667 10.6667V10.25C9.66667 9.91848 9.53497 9.60053 9.30055 9.36611C9.06613 9.13169 8.74819 9 8.41667 9H2.25ZM9.558 12.6963C10.0167 12.8823 10.5977 13 11.333 13C14.833 13 14.833 10.3333 14.833 10.3333V10.25C14.833 9.91853 14.7014 9.60064 14.467 9.36623C14.2327 9.13182 13.9148 9.00009 13.5833 9H9.869C10.1687 9.34742 10.3333 9.79115 10.3327 10.25V10.6817L10.3323 10.7007C10.3304 10.7654 10.3259 10.83 10.319 10.8943C10.3025 11.0431 10.2756 11.1906 10.2387 11.3357C10.1124 11.833 9.88025 12.2971 9.558 12.6963Z" fill="#4C5B66"/>
</g>
</svg>
