<svg width="24" height="24" viewBox="0 0 24 24" fill="none" xmlns="http://www.w3.org/2000/svg">
<g id="Icons / Room-pink">
<path id="Vector" d="M1.33334 24C0.95556 24 0.638671 23.872 0.382671 23.616C0.126671 23.36 -0.000884275 23.0436 4.61361e-06 22.6667C4.61361e-06 22.2889 0.128005 21.972 0.384005 21.716C0.640005 21.46 0.956449 21.3324 1.33334 21.3333H2.66667V1.33334C2.66667 0.95556 2.79467 0.638671 3.05067 0.382671C3.30667 0.126671 3.62311 -0.000884275 4 4.61361e-06H14.6667C15.0444 4.61361e-06 15.3613 0.128005 15.6173 0.384005C15.8733 0.640005 16.0009 0.956449 16 1.33334H20C20.3778 1.33334 20.6947 1.46134 20.9507 1.71734C21.2067 1.97334 21.3342 2.28978 21.3333 2.66667V21.3333H22.6667C23.0444 21.3333 23.3613 21.4613 23.6173 21.7173C23.8733 21.9733 24.0009 22.2898 24 22.6667C24 23.0444 23.872 23.3613 23.616 23.6173C23.36 23.8733 23.0436 24.0009 22.6667 24H20C19.6222 24 19.3053 23.872 19.0493 23.616C18.7933 23.36 18.6658 23.0436 18.6667 22.6667V4H16V22.6667C16 23.0444 15.872 23.3613 15.616 23.6173C15.36 23.8733 15.0436 24.0009 14.6667 24H1.33334ZM12 12C12 11.6222 11.872 11.3053 11.616 11.0493C11.36 10.7933 11.0436 10.6658 10.6667 10.6667C10.2889 10.6667 9.972 10.7947 9.716 11.0507C9.46 11.3067 9.33245 11.6231 9.33333 12C9.33333 12.3778 9.46133 12.6947 9.71733 12.9507C9.97333 13.2067 10.2898 13.3342 10.6667 13.3333C11.0444 13.3333 11.3613 13.2053 11.6173 12.9493C11.8733 12.6933 12.0009 12.3769 12 12ZM5.33334 21.3333H13.3333V2.66667H5.33334V21.3333Z" fill="#581C21" fill-opacity="0.8"/>
</g>
</svg>
