<svg width="32" height="32" viewBox="0 0 32 32" fill="none" xmlns="http://www.w3.org/2000/svg">
<g id="Icons / Sort" clip-path="url(#clip0_1_293)">
<path id="Vector" d="M4 22.6667C4 23.403 4.59695 24 5.33333 24H10.6667C11.403 24 12 23.403 12 22.6667C12 21.9303 11.403 21.3333 10.6667 21.3333H5.33333C4.59695 21.3333 4 21.9303 4 22.6667ZM5.33333 8C4.59695 8 4 8.59695 4 9.33333C4 10.0697 4.59695 10.6667 5.33333 10.6667H26.6667C27.403 10.6667 28 10.0697 28 9.33333C28 8.59695 27.403 8 26.6667 8H5.33333ZM4 16C4 16.7364 4.59695 17.3333 5.33333 17.3333H18.6667C19.403 17.3333 20 16.7364 20 16C20 15.2636 19.403 14.6667 18.6667 14.6667H5.33333C4.59695 14.6667 4 15.2636 4 16Z" fill="white"/>
</g>
<defs>
<clipPath id="clip0_1_293">
<rect width="32" height="32" fill="white"/>
</clipPath>
</defs>
</svg>
